<svg xmlns="http://www.w3.org/2000/svg" viewBox="0 0 340.66 20.17"><defs><style>.cls-1{fill:#e6c318;stroke:#f419f9;stroke-miterlimit:10;stroke-width:3px;}</style></defs><g id="Layer_2" data-name="Layer 2"><g id="Layer_1-2" data-name="Layer 1"><path class="cls-1" d="M6.83,16.08c5.39,4.18,12.69,2.37,20.23.94,12.09-2.29,24.48-2.45,36.71-3.76,13.72-1.48,13.42.33,44.23.94,16.79.33,28.77,0,48.95-.47,29.84-.75,29.12-1.56,50.35-1.88,27.47-.42,41.2-.66,56.94.94,26.33,2.67,37.16,2.56,58.82,2.35,5.75-.06,15-.26,16-3.76.67-2.32-2.29-5.86-5.64-7.06-4.11-1.48-7.18,1.21-12.71,2.35-7.21,1.48-12.8-.86-16.47-1.88C290,.82,249.54,1.64,221.89,2c-76.32.88-82.12-1-112,0-4,.14-21.74.78-45.18,1.3-16.81.37-25.22.55-27.29.47-22-.92-32.56-4.59-35.3.12C.2,7.14,3,13.11,6.83,16.08Z"/></g></g></svg>