<svg xmlns="http://www.w3.org/2000/svg" viewBox="0 0 348.22 23.79"><defs><style>.cls-1{fill:#c6e0a1;stroke:#de2a35;stroke-miterlimit:10;stroke-width:3px;}</style></defs><g id="Layer_2" data-name="Layer 2"><g id="Layer_1-2" data-name="Layer 1"><path class="cls-1" d="M3,10.67C5.62,8,11.25,10,11.53,9.06S5.07,6,5.18,4.83c.28-2.9,42.35-.26,79.76,0,41.69.28,39.66-2.65,88.24-2.48C218.42,2.5,216,5,240.94,3.42c7.83-.51,42.24-3,60-1.42,6.12.54,12.26.7,18.36,1.42,7.36.86,9,1.43,12.57.73,5-1,7.47-3.13,10.72-1.79,2.24.91,4.42,3.3,4.1,5.32-.47,3.06-6.33,3.13-6.92,6.32-.48,2.6,3.11,4.09,2.69,5.68-.8,3-14.62,1.21-33.18.71-9.64-.26-19.29,0-28.94,0h0c-86.5-2.49-96.57-2.5-96.57-2.5-53.81-.06-81.45-.08-109.41,2.82-12.92,1.34-26,.58-39,1.09C17.81,22.5,4.52,23.3,2,17.53,1.14,15.56,1.34,12.33,3,10.67Z"/></g></g></svg>