<svg xmlns="http://www.w3.org/2000/svg" viewBox="0 0 351.17 39.54"><defs><style>.cls-1{fill:#5a362a;stroke:#fff;stroke-miterlimit:10;stroke-width:3px;}</style></defs><g id="Layer_2" data-name="Layer 2"><g id="Layer_1-2" data-name="Layer 1"><path class="cls-1" d="M6.71,9.66c-2.92,5,3.06,12.71-1.89,18.82-1.62,2-3.59,3.08-3.29,4.23.77,2.95,15.13,1.58,16.94,1.42,3.69-.34,55.32-.23,158.59,0,96.41.21,144.61.31,151.06,2.35,2.23.7,10.19,3.38,15.53-.47,8.31-6,7.73-26.34,0-30.59a8.6,8.6,0,0,0-5.79-.66c-27.46,5.71-56.06-4-84.11-3.21-106,3.07-159,4.6-169.87,2.93-20.16-3.09-40.82,2.25-61.17.94C19.77,5.23,9.72,4.52,6.71,9.66Z"/></g></g></svg>