<svg xmlns="http://www.w3.org/2000/svg" viewBox="0 0 342.87 25.09"><defs><style>.cls-1{fill:#0095d1;stroke:#000102;stroke-miterlimit:10;stroke-width:3px;}</style></defs><g id="Layer_2" data-name="Layer 2"><g id="Layer_1-2" data-name="Layer 1"><path class="cls-1" d="M2.69,12c.59-2,2.9-7.78,2.16-5.84h0s39.88,1.13,78.49,0c40.82-1.2,44.71-3.89,85.2-4.38,20.56-.24,14.63.51,46.31.47,52.79-.06,70.1-2.15,81,1.09,2.33.68,9.52,3.14,18.06,1.41,2.46-.5,2.52-.83,6-1.55,6.71-1.38,12.48-2.57,16.92.49a10.46,10.46,0,0,1,4,5.33,10.35,10.35,0,0,1-.11,6.41A13.28,13.28,0,0,1,336.74,21c-6.4,5.13-22,1-32.64.7-9.49-.26-19,0-28.48,0-85.12-2.49-95-2.5-95-2.5-52.95-.05-80.15-.08-107.67,2.82-12.71,1.34-25.56.58-38.33,1.09-17.32.7-30.39,1.5-32.87-4.26C1,17.12,2.28,13.39,2.69,12Z"/></g></g></svg>