<svg xmlns="http://www.w3.org/2000/svg" viewBox="0 0 343.42 12.54"><defs><style>.cls-1{fill:#f818ff;stroke:#0095d1;stroke-miterlimit:10;stroke-width:3px;}</style></defs><g id="Layer_2" data-name="Layer 2"><g id="Layer_1-2" data-name="Layer 1"><path class="cls-1" d="M2.52,3.29C5.73,1.13,16,1.75,24.4,2.1c17.33.71,34.85-.72,52.24-.3,19.55.47,8.49-.25,92.47-.3,89.08,0,72.92.79,88.23.3,23-.73,46.15,1.82,69.18,1.19,3.22-.09,12.49-.38,14.82,1.49,1.73,1.38-.61,3.73-4.23,5.06-6.59,2.42-15.84.93-33.18.3-9.61-.35-19.29,0-28.94,0-31.6-.12-74.78.27-110.12.59-29.64.27-59.3.32-88.94.6-15.3.14-30.68-1.34-45.88-.6-8.56.42-18.07,1.2-24-1.19C2.18,7.68.14,4.9,2.52,3.29Z"/></g></g></svg>