<svg xmlns="http://www.w3.org/2000/svg" viewBox="0 0 343.42 25.62"><defs><style>.cls-1{fill:#dc2b36;stroke:#5a362a;stroke-miterlimit:10;stroke-width:3px;}</style></defs><g id="Layer_2" data-name="Layer 2"><g id="Layer_1-2" data-name="Layer 1"><path class="cls-1" d="M2.52,5.74C5.73.61,16,2.1,24.4,2.92c17.33,1.69,34.85-1.7,52.24-.71,19.55,1.12,8.49-.6,92.47-.71,89.08-.11,72.92,1.87,88.23.71,23-1.73,46.15,4.32,69.18,2.83,3.22-.21,12.49-.91,14.82,3.53,1.73,3.28-.61,8.84-4.23,12-6.59,5.74-15.84,2.2-33.18.7-9.61-.83-19.29.09-28.94,0-31.6-.28-74.78.65-110.12,1.42-29.64.63-59.3.74-88.94,1.41-15.3.34-30.68-3.17-45.88-1.41-8.56,1-18.07,2.85-24-2.83C2.18,16.16.14,9.55,2.52,5.74Z"/></g></g></svg>