<svg xmlns="http://www.w3.org/2000/svg" viewBox="0 0 375.2 115.28"><defs><style>.cls-1{stroke:#fff;stroke-miterlimit:10;stroke-width:6px;}</style></defs><g id="Layer_2" data-name="Layer 2"><g id="Layer_1-2" data-name="Layer 1"><path class="cls-1" d="M4.23,99C.79,92,5,83.32,11.79,69.28c3.91-8,11.64-23.54,28.59-37.06A106.27,106.27,0,0,1,69,16.34C116-1.25,222.94-5.24,317.79,28c10.85,3.8,29.95,11,42.36,29.65,8.47,12.71,17.46,36.18,8,48.17-10.06,12.77-33.73,3.21-84.31.26-13.34-.78-33.23-.08-73,1.33-54.32,1.93-108.72.7-163.06,2.12C33.05,109.9,10,110.58,4.23,99Z"/><path class="cls-1" d="M208.29,54.41c-5.78-1-14.79,2.21-13.77,4.17s12.7,3.47,16.95,1.67C215,58.77,213.08,55.22,208.29,54.41Z"/><path class="cls-1" d="M241.56,55.52c-2.87,3.21-.19,12.82,5.29,13.76,4.83.83,10.42-5.3,9.53-9.53C255.3,54.62,244.63,52.07,241.56,55.52Z"/><path class="cls-1" d="M157.87,15.43c-4.35.53-7.65,5.36-6.16,8.09,2.07,3.79,13.54,3.74,15.4.81C168.83,21.63,163.54,14.75,157.87,15.43Z"/><path class="cls-1" d="M119.53,23.94c-3.24,2.1-5.09,15,1.06,20.65,5.07,4.64,12.59,1.52,13.76-2.75C136.17,35.2,124,21.06,119.53,23.94Z"/><path class="cls-1" d="M325.21,66.11c-3.81-.13-8.52,8.66-6.36,11.64,2.9,4,19.74-.49,14.83,0h0S329.5,66.24,325.21,66.11Z"/><path class="cls-1" d="M281.79,29.05c3.17.1,6.65,9.43,4.24,11.65-1.61,1.48-6.83.71-8.47-3.18C275.81,33.36,279.58,29,281.79,29.05Z"/><path class="cls-1" d="M223.85,22.63h0l-10.59,6.68c2.46,2.82,7.19,4.41,11.65,4,5.77-.52,10.41-4.32,9.53-8.68"/></g></g></svg>