<?xml version="1.0" standalone="no"?><svg xmlns="http://www.w3.org/2000/svg" viewBox="0 0 1440 320"><path fill="#ffcd17" fill-opacity="1" d="M0,64L9.2,106.7C18.5,149,37,235,55,261.3C73.8,288,92,256,111,208C129.2,160,148,96,166,69.3C184.6,43,203,53,222,48C240,43,258,21,277,26.7C295.4,32,314,64,332,96C350.8,128,369,160,388,181.3C406.2,203,425,213,443,192C461.5,171,480,117,498,85.3C516.9,53,535,43,554,32C572.3,21,591,11,609,16C627.7,21,646,43,665,74.7C683.1,107,702,149,720,176C738.5,203,757,213,775,197.3C793.8,181,812,139,831,117.3C849.2,96,868,96,886,117.3C904.6,139,923,181,942,202.7C960,224,978,224,997,192C1015.4,160,1034,96,1052,96C1070.8,96,1089,160,1108,197.3C1126.2,235,1145,245,1163,208C1181.5,171,1200,85,1218,85.3C1236.9,85,1255,171,1274,186.7C1292.3,203,1311,149,1329,144C1347.7,139,1366,181,1385,213.3C1403.1,245,1422,267,1431,277.3L1440,288L1440,0L1430.8,0C1421.5,0,1403,0,1385,0C1366.2,0,1348,0,1329,0C1310.8,0,1292,0,1274,0C1255.4,0,1237,0,1218,0C1200,0,1182,0,1163,0C1144.6,0,1126,0,1108,0C1089.2,0,1071,0,1052,0C1033.8,0,1015,0,997,0C978.5,0,960,0,942,0C923.1,0,905,0,886,0C867.7,0,849,0,831,0C812.3,0,794,0,775,0C756.9,0,738,0,720,0C701.5,0,683,0,665,0C646.2,0,628,0,609,0C590.8,0,572,0,554,0C535.4,0,517,0,498,0C480,0,462,0,443,0C424.6,0,406,0,388,0C369.2,0,351,0,332,0C313.8,0,295,0,277,0C258.5,0,240,0,222,0C203.1,0,185,0,166,0C147.7,0,129,0,111,0C92.3,0,74,0,55,0C36.9,0,18,0,9,0L0,0Z"></path></svg>