<?xml version="1.0" standalone="no"?><svg xmlns="http://www.w3.org/2000/svg" viewBox="0 0 1440 320"><path fill="#ffd700" fill-opacity="1" d="M0,288L6.2,245.3C12.3,203,25,117,37,106.7C49.2,96,62,160,74,154.7C86.2,149,98,75,111,48C123.1,21,135,43,148,58.7C160,75,172,85,185,90.7C196.9,96,209,96,222,101.3C233.8,107,246,117,258,112C270.8,107,283,85,295,80C307.7,75,320,85,332,128C344.6,171,357,245,369,250.7C381.5,256,394,192,406,154.7C418.5,117,431,107,443,128C455.4,149,468,203,480,213.3C492.3,224,505,192,517,192C529.2,192,542,224,554,213.3C566.2,203,578,149,591,133.3C603.1,117,615,139,628,122.7C640,107,652,53,665,32C676.9,11,689,21,702,48C713.8,75,726,117,738,117.3C750.8,117,763,75,775,64C787.7,53,800,75,812,74.7C824.6,75,837,53,849,48C861.5,43,874,53,886,64C898.5,75,911,85,923,90.7C935.4,96,948,96,960,90.7C972.3,85,985,75,997,101.3C1009.2,128,1022,192,1034,208C1046.2,224,1058,192,1071,202.7C1083.1,213,1095,267,1108,272C1120,277,1132,235,1145,213.3C1156.9,192,1169,192,1182,170.7C1193.8,149,1206,107,1218,96C1230.8,85,1243,107,1255,112C1267.7,117,1280,107,1292,122.7C1304.6,139,1317,181,1329,176C1341.5,171,1354,117,1366,128C1378.5,139,1391,213,1403,234.7C1415.4,256,1428,224,1434,208L1440,192L1440,0L1433.8,0C1427.7,0,1415,0,1403,0C1390.8,0,1378,0,1366,0C1353.8,0,1342,0,1329,0C1316.9,0,1305,0,1292,0C1280,0,1268,0,1255,0C1243.1,0,1231,0,1218,0C1206.2,0,1194,0,1182,0C1169.2,0,1157,0,1145,0C1132.3,0,1120,0,1108,0C1095.4,0,1083,0,1071,0C1058.5,0,1046,0,1034,0C1021.5,0,1009,0,997,0C984.6,0,972,0,960,0C947.7,0,935,0,923,0C910.8,0,898,0,886,0C873.8,0,862,0,849,0C836.9,0,825,0,812,0C800,0,788,0,775,0C763.1,0,751,0,738,0C726.2,0,714,0,702,0C689.2,0,677,0,665,0C652.3,0,640,0,628,0C615.4,0,603,0,591,0C578.5,0,566,0,554,0C541.5,0,529,0,517,0C504.6,0,492,0,480,0C467.7,0,455,0,443,0C430.8,0,418,0,406,0C393.8,0,382,0,369,0C356.9,0,345,0,332,0C320,0,308,0,295,0C283.1,0,271,0,258,0C246.2,0,234,0,222,0C209.2,0,197,0,185,0C172.3,0,160,0,148,0C135.4,0,123,0,111,0C98.5,0,86,0,74,0C61.5,0,49,0,37,0C24.6,0,12,0,6,0L0,0Z"></path></svg>